<svg xmlns="http://www.w3.org/2000/svg" xmlns:xlink="http://www.w3.org/1999/xlink" width="50" zoomAndPan="magnify" viewBox="0 0 37.5 37.499999" height="50" preserveAspectRatio="xMidYMid meet" version="1.0"><defs><clipPath id="790812794a"><path d="M 5.589844 5.734375 L 31.417969 5.734375 L 31.417969 31.566406 L 5.589844 31.566406 Z M 5.589844 5.734375 " clip-rule="nonzero"/></clipPath><clipPath id="d437df8120"><path d="M 18.503906 5.734375 C 11.371094 5.734375 5.589844 11.519531 5.589844 18.652344 C 5.589844 25.785156 11.371094 31.566406 18.503906 31.566406 C 25.636719 31.566406 31.417969 25.785156 31.417969 18.652344 C 31.417969 11.519531 25.636719 5.734375 18.503906 5.734375 Z M 18.503906 5.734375 " clip-rule="nonzero"/></clipPath><clipPath id="7d2a93f6c3"><path d="M 14 13.152344 L 20 13.152344 L 20 19 L 14 19 Z M 14 13.152344 " clip-rule="nonzero"/></clipPath><clipPath id="a0e104d405"><path d="M 13.394531 19 L 22 19 L 22 23.515625 L 13.394531 23.515625 Z M 13.394531 19 " clip-rule="nonzero"/></clipPath><clipPath id="08f0def2ad"><path d="M 19 16 L 23.757812 16 L 23.757812 21 L 19 21 Z M 19 16 " clip-rule="nonzero"/></clipPath></defs><g clip-path="url(#790812794a)"><g clip-path="url(#d437df8120)"><path fill="#cff9ff" d="M 5.589844 5.734375 L 31.417969 5.734375 L 31.417969 31.566406 L 5.589844 31.566406 Z M 5.589844 5.734375 " fill-opacity="1" fill-rule="nonzero"/></g></g><g clip-path="url(#7d2a93f6c3)"><path fill="#737373" d="M 17.246094 18.546875 C 18.730469 18.546875 19.941406 17.335938 19.941406 15.851562 C 19.941406 14.363281 18.730469 13.152344 17.246094 13.152344 C 15.757812 13.152344 14.546875 14.363281 14.546875 15.851562 C 14.546875 17.335938 15.757812 18.546875 17.246094 18.546875 Z M 17.246094 13.597656 C 18.488281 13.597656 19.496094 14.605469 19.496094 15.851562 C 19.496094 17.09375 18.488281 18.105469 17.246094 18.105469 C 16 18.105469 14.992188 17.09375 14.992188 15.851562 C 14.992188 14.605469 16 13.597656 17.246094 13.597656 Z M 17.246094 13.597656 " fill-opacity="1" fill-rule="nonzero"/></g><g clip-path="url(#a0e104d405)"><path fill="#737373" d="M 20.773438 21.589844 C 20.253906 20.089844 18.832031 19.082031 17.246094 19.082031 C 15.65625 19.082031 14.234375 20.089844 13.714844 21.589844 L 13.542969 22.078125 C 13.398438 22.492188 13.460938 22.933594 13.714844 23.289062 C 13.96875 23.644531 14.367188 23.851562 14.804688 23.851562 L 19.683594 23.851562 C 20.121094 23.851562 20.519531 23.644531 20.773438 23.289062 C 21.027344 22.933594 21.089844 22.492188 20.945312 22.078125 Z M 20.410156 23.035156 C 20.242188 23.273438 19.976562 23.410156 19.683594 23.410156 L 14.804688 23.410156 C 14.511719 23.410156 14.246094 23.273438 14.078125 23.035156 C 13.90625 22.792969 13.863281 22.5 13.960938 22.222656 L 14.132812 21.734375 C 14.589844 20.410156 15.84375 19.523438 17.246094 19.523438 C 18.644531 19.523438 19.898438 20.410156 20.359375 21.734375 L 20.527344 22.222656 C 20.625 22.5 20.582031 22.792969 20.410156 23.035156 Z M 20.410156 23.035156 " fill-opacity="1" fill-rule="nonzero"/></g><g clip-path="url(#08f0def2ad)"><path fill="#737373" d="M 23.273438 17.75 L 22.410156 17.75 L 22.410156 16.890625 C 22.410156 16.707031 22.265625 16.5625 22.082031 16.5625 L 21.0625 16.5625 C 20.882812 16.5625 20.734375 16.707031 20.734375 16.890625 L 20.734375 17.75 L 19.875 17.75 C 19.695312 17.75 19.546875 17.898438 19.546875 18.078125 L 19.546875 19.097656 C 19.546875 19.28125 19.695312 19.425781 19.875 19.425781 L 20.734375 19.425781 L 20.734375 20.289062 C 20.734375 20.46875 20.882812 20.617188 21.0625 20.617188 L 22.082031 20.617188 C 22.265625 20.617188 22.410156 20.46875 22.410156 20.289062 L 22.410156 19.425781 L 23.273438 19.425781 C 23.453125 19.425781 23.601562 19.28125 23.601562 19.097656 L 23.601562 18.078125 C 23.601562 17.898438 23.453125 17.75 23.273438 17.75 Z M 23.160156 18.984375 L 22.191406 18.984375 C 22.070312 18.984375 21.96875 19.082031 21.96875 19.207031 L 21.96875 20.171875 L 21.175781 20.171875 L 21.175781 19.207031 C 21.175781 19.082031 21.078125 18.984375 20.957031 18.984375 L 19.988281 18.984375 L 19.988281 18.191406 L 20.957031 18.191406 C 21.078125 18.191406 21.175781 18.09375 21.175781 17.972656 L 21.175781 17.003906 L 21.96875 17.003906 L 21.96875 17.972656 C 21.96875 18.09375 22.070312 18.191406 22.191406 18.191406 L 23.160156 18.191406 Z M 23.160156 18.984375 " fill-opacity="1" fill-rule="nonzero"/></g></svg>