<svg xmlns="http://www.w3.org/2000/svg" xmlns:xlink="http://www.w3.org/1999/xlink" width="50" zoomAndPan="magnify" viewBox="0 0 37.5 37.499999" height="50" preserveAspectRatio="xMidYMid meet" version="1.0"><defs><clipPath id="a38b6b8401"><path d="M 5.808594 5.734375 L 31.640625 5.734375 L 31.640625 31.566406 L 5.808594 31.566406 Z M 5.808594 5.734375 " clip-rule="nonzero"/></clipPath><clipPath id="cb98aeb37c"><path d="M 18.726562 5.734375 C 11.59375 5.734375 5.808594 11.519531 5.808594 18.652344 C 5.808594 25.785156 11.59375 31.566406 18.726562 31.566406 C 25.859375 31.566406 31.640625 25.785156 31.640625 18.652344 C 31.640625 11.519531 25.859375 5.734375 18.726562 5.734375 Z M 18.726562 5.734375 " clip-rule="nonzero"/></clipPath><clipPath id="63305ea31a"><path d="M 21 14.519531 L 24 14.519531 L 24 17 L 21 17 Z M 21 14.519531 " clip-rule="nonzero"/></clipPath><clipPath id="d3f660c668"><path d="M 23 19 L 24.832031 19 L 24.832031 22.664062 L 23 22.664062 Z M 23 19 " clip-rule="nonzero"/></clipPath><clipPath id="b20b85f5d1"><path d="M 18 16 L 24.832031 16 L 24.832031 22.664062 L 18 22.664062 Z M 18 16 " clip-rule="nonzero"/></clipPath><clipPath id="a446c96f43"><path d="M 13 16 L 19 16 L 19 22.664062 L 13 22.664062 Z M 13 16 " clip-rule="nonzero"/></clipPath><clipPath id="6216ae6980"><path d="M 13 14.519531 L 16 14.519531 L 16 17 L 13 17 Z M 13 14.519531 " clip-rule="nonzero"/></clipPath><clipPath id="e26e90b04a"><path d="M 12.25 19 L 15 19 L 15 22.664062 L 12.25 22.664062 Z M 12.25 19 " clip-rule="nonzero"/></clipPath></defs><g clip-path="url(#a38b6b8401)"><g clip-path="url(#cb98aeb37c)"><path fill="#cff9ff" d="M 5.808594 5.734375 L 31.640625 5.734375 L 31.640625 31.566406 L 5.808594 31.566406 Z M 5.808594 5.734375 " fill-opacity="1" fill-rule="nonzero"/></g></g><g clip-path="url(#63305ea31a)"><path fill="#737373" d="M 23.496094 15.304688 C 23.496094 15.519531 23.417969 15.703125 23.265625 15.855469 C 23.113281 16.007812 22.929688 16.085938 22.714844 16.085938 C 22.496094 16.085938 22.3125 16.007812 22.160156 15.855469 C 22.007812 15.703125 21.933594 15.519531 21.933594 15.304688 C 21.933594 15.085938 22.007812 14.902344 22.160156 14.75 C 22.3125 14.597656 22.496094 14.519531 22.714844 14.519531 C 22.929688 14.519531 23.113281 14.597656 23.265625 14.75 C 23.417969 14.902344 23.496094 15.085938 23.496094 15.304688 Z M 23.496094 15.304688 " fill-opacity="1" fill-rule="nonzero"/></g><g clip-path="url(#d3f660c668)"><path fill="#737373" d="M 23.234375 20.667969 C 23.226562 20.769531 23.257812 20.867188 23.320312 20.949219 L 24.351562 22.304688 C 24.433594 22.414062 24.566406 22.476562 24.695312 22.476562 C 24.789062 22.476562 24.878906 22.445312 24.957031 22.386719 C 25.148438 22.242188 25.1875 21.96875 25.042969 21.777344 L 24.109375 20.546875 L 24.167969 19.234375 L 23.261719 20.050781 Z M 23.234375 20.667969 " fill-opacity="1" fill-rule="nonzero"/></g><g clip-path="url(#b20b85f5d1)"><path fill="#737373" d="M 23.296875 16.132812 C 23.210938 16.15625 23.136719 16.207031 23.082031 16.277344 C 23.0625 16.289062 23.046875 16.308594 23.03125 16.328125 L 22.554688 16.949219 L 22.554688 16.472656 C 22.554688 16.410156 22.507812 16.351562 22.445312 16.339844 C 22.292969 16.304688 21.921875 16.226562 21.71875 16.226562 C 21.574219 16.226562 21.476562 16.238281 21.402344 16.261719 C 21.242188 16.316406 21.226562 16.433594 21.226562 16.484375 C 21.226562 16.53125 21.238281 16.582031 21.261719 16.640625 C 21.308594 16.75 21.359375 16.890625 21.359375 17.007812 C 21.359375 17.046875 21.355469 17.082031 21.34375 17.109375 L 20.8125 16.953125 C 20.734375 16.929688 20.660156 16.941406 20.597656 16.976562 C 20.605469 16.863281 20.652344 16.738281 20.691406 16.640625 C 20.714844 16.582031 20.726562 16.53125 20.726562 16.484375 C 20.726562 16.433594 20.710938 16.316406 20.550781 16.261719 C 20.476562 16.238281 20.378906 16.226562 20.234375 16.226562 C 20.042969 16.226562 19.707031 16.292969 19.523438 16.335938 C 19.488281 16.34375 19.457031 16.363281 19.4375 16.394531 C 19.417969 16.425781 19.410156 16.464844 19.417969 16.5 C 19.484375 16.796875 19.523438 17.054688 19.523438 17.183594 C 19.523438 17.273438 19.523438 17.480469 19.449219 17.53125 C 19.441406 17.535156 19.425781 17.542969 19.398438 17.542969 C 19.371094 17.542969 19.335938 17.535156 19.296875 17.519531 C 19.175781 17.46875 19.019531 17.410156 18.875 17.410156 C 18.789062 17.410156 18.71875 17.429688 18.660156 17.46875 C 18.542969 17.546875 18.484375 17.699219 18.484375 17.925781 C 18.484375 18.152344 18.542969 18.304688 18.660156 18.382812 C 18.71875 18.421875 18.789062 18.441406 18.875 18.441406 C 19.019531 18.441406 19.175781 18.382812 19.292969 18.335938 C 19.335938 18.316406 19.371094 18.308594 19.398438 18.308594 C 19.425781 18.308594 19.441406 18.316406 19.449219 18.320312 C 19.523438 18.371094 19.523438 18.578125 19.523438 18.667969 C 19.523438 18.851562 19.453125 19.195312 19.421875 19.332031 C 19.414062 19.375 19.421875 19.417969 19.449219 19.449219 C 19.476562 19.484375 19.515625 19.503906 19.558594 19.503906 L 21.765625 19.503906 C 21.765625 19.457031 21.773438 19.40625 21.789062 19.363281 L 19.558594 19.363281 C 19.59375 19.203125 19.664062 18.859375 19.664062 18.667969 C 19.664062 18.488281 19.652344 18.289062 19.527344 18.207031 C 19.488281 18.179688 19.449219 18.167969 19.398438 18.167969 C 19.351562 18.167969 19.300781 18.179688 19.242188 18.207031 C 19.132812 18.25 18.992188 18.300781 18.875 18.300781 C 18.824219 18.300781 18.777344 18.292969 18.738281 18.269531 C 18.664062 18.21875 18.625 18.101562 18.625 17.925781 C 18.625 17.75 18.664062 17.636719 18.738281 17.585938 C 18.777344 17.558594 18.824219 17.550781 18.875 17.550781 C 18.992188 17.550781 19.132812 17.601562 19.242188 17.648438 C 19.300781 17.671875 19.351562 17.683594 19.398438 17.683594 C 19.449219 17.683594 19.488281 17.671875 19.527344 17.648438 C 19.652344 17.5625 19.664062 17.363281 19.664062 17.183594 C 19.664062 16.984375 19.589844 16.625 19.554688 16.472656 C 19.703125 16.4375 20.050781 16.363281 20.234375 16.363281 C 20.484375 16.363281 20.589844 16.398438 20.589844 16.484375 C 20.589844 16.511719 20.582031 16.546875 20.5625 16.585938 C 20.511719 16.707031 20.457031 16.863281 20.457031 17.007812 C 20.457031 17.191406 20.546875 17.40625 20.976562 17.40625 C 21.160156 17.40625 21.289062 17.367188 21.378906 17.292969 C 21.457031 17.226562 21.5 17.128906 21.5 17.007812 C 21.5 16.863281 21.441406 16.707031 21.390625 16.585938 C 21.375 16.546875 21.363281 16.511719 21.363281 16.484375 C 21.363281 16.398438 21.46875 16.363281 21.71875 16.363281 C 21.910156 16.363281 22.273438 16.441406 22.414062 16.472656 L 22.414062 18.757812 L 22.554688 18.636719 L 22.554688 17.863281 L 23.027344 17.246094 C 23.046875 17.347656 23.066406 17.457031 23.085938 17.566406 C 23.089844 17.589844 23.09375 17.613281 23.097656 17.636719 L 23.210938 16.902344 C 23.242188 16.726562 23.390625 16.59375 23.574219 16.59375 C 23.589844 16.59375 23.609375 16.597656 23.628906 16.597656 C 23.828125 16.628906 23.964844 16.816406 23.933594 17.015625 L 23.703125 18.484375 C 23.691406 18.570312 23.648438 18.648438 23.582031 18.703125 L 22.371094 19.765625 C 22.304688 19.824219 22.222656 19.855469 22.132812 19.855469 C 22.109375 19.855469 22.082031 19.855469 22.058594 19.847656 C 22.015625 19.898438 21.984375 19.953125 21.96875 20.015625 L 21.421875 21.921875 C 21.359375 22.152344 21.492188 22.394531 21.722656 22.460938 C 21.761719 22.472656 21.800781 22.476562 21.839844 22.476562 C 22.03125 22.476562 22.203125 22.351562 22.257812 22.160156 L 22.769531 20.375 L 24.164062 19.121094 C 24.191406 19.097656 24.210938 19.070312 24.230469 19.042969 C 24.304688 18.953125 24.363281 18.828125 24.394531 18.660156 C 24.460938 18.113281 24.453125 17.722656 24.359375 17.289062 C 24.320312 17.117188 24.265625 16.933594 24.199219 16.730469 C 24.023438 16.222656 23.59375 16.058594 23.296875 16.132812 Z M 23.296875 16.132812 " fill-opacity="1" fill-rule="nonzero"/></g><g clip-path="url(#a446c96f43)"><path fill="#737373" d="M 18.175781 19.394531 C 18.21875 19.207031 18.289062 18.863281 18.289062 18.667969 C 18.289062 18.476562 18.273438 18.289062 18.152344 18.210938 C 18.117188 18.1875 18.078125 18.175781 18.03125 18.175781 C 17.984375 18.175781 17.933594 18.1875 17.875 18.210938 C 17.773438 18.253906 17.625 18.308594 17.503906 18.308594 C 17.449219 18.308594 17.402344 18.296875 17.367188 18.273438 C 17.269531 18.207031 17.25 18.046875 17.25 17.925781 C 17.25 17.804688 17.269531 17.644531 17.367188 17.578125 C 17.402344 17.554688 17.449219 17.542969 17.503906 17.542969 C 17.628906 17.542969 17.773438 17.597656 17.875 17.640625 C 17.933594 17.664062 17.984375 17.675781 18.03125 17.675781 C 18.078125 17.675781 18.117188 17.664062 18.152344 17.640625 C 18.273438 17.5625 18.289062 17.375 18.289062 17.183594 C 18.289062 16.976562 18.207031 16.597656 18.171875 16.445312 C 18.160156 16.394531 18.121094 16.351562 18.070312 16.339844 C 17.914062 16.308594 17.539062 16.226562 17.332031 16.226562 C 17.183594 16.226562 17.085938 16.238281 17.015625 16.261719 C 16.855469 16.316406 16.835938 16.433594 16.835938 16.484375 C 16.835938 16.53125 16.847656 16.582031 16.875 16.640625 C 16.917969 16.75 16.972656 16.890625 16.972656 17.007812 C 16.972656 17.046875 16.964844 17.078125 16.957031 17.101562 C 16.902344 16.980469 16.761719 16.910156 16.625 16.953125 L 16.210938 17.074219 C 16.207031 17.050781 16.207031 17.027344 16.207031 17.007812 C 16.207031 16.890625 16.257812 16.75 16.304688 16.640625 C 16.328125 16.582031 16.339844 16.53125 16.339844 16.484375 C 16.339844 16.433594 16.324219 16.316406 16.164062 16.261719 C 16.089844 16.238281 15.992188 16.226562 15.847656 16.226562 C 15.652344 16.226562 15.308594 16.296875 15.121094 16.339844 C 15.058594 16.351562 15.011719 16.410156 15.011719 16.472656 L 15.011719 17.117188 L 14.40625 16.328125 C 14.390625 16.308594 14.375 16.289062 14.355469 16.277344 C 14.300781 16.207031 14.226562 16.15625 14.140625 16.132812 C 13.84375 16.058594 13.414062 16.222656 13.238281 16.730469 C 13.140625 17.019531 13.074219 17.265625 13.039062 17.511719 C 12.984375 17.859375 12.988281 18.207031 13.042969 18.660156 C 13.074219 18.828125 13.132812 18.953125 13.207031 19.042969 C 13.226562 19.070312 13.246094 19.097656 13.273438 19.121094 L 14.667969 20.375 L 15.179688 22.160156 C 15.234375 22.351562 15.40625 22.476562 15.59375 22.476562 C 15.636719 22.476562 15.675781 22.472656 15.714844 22.460938 C 15.945312 22.394531 16.078125 22.152344 16.011719 21.921875 L 15.46875 20.015625 C 15.453125 19.953125 15.421875 19.898438 15.378906 19.847656 C 15.355469 19.855469 15.328125 19.855469 15.304688 19.855469 C 15.214844 19.855469 15.132812 19.824219 15.0625 19.765625 L 13.851562 18.703125 C 13.789062 18.648438 13.746094 18.570312 13.734375 18.484375 L 13.503906 17.015625 C 13.472656 16.816406 13.609375 16.628906 13.808594 16.597656 C 13.828125 16.597656 13.847656 16.59375 13.863281 16.59375 C 14.046875 16.59375 14.195312 16.726562 14.226562 16.902344 L 14.339844 17.636719 C 14.339844 17.625 14.34375 17.613281 14.34375 17.601562 C 14.367188 17.476562 14.390625 17.359375 14.410156 17.246094 L 14.882812 17.863281 C 14.917969 17.90625 14.960938 17.941406 15.011719 17.957031 L 15.011719 18.75 L 15.152344 18.871094 L 15.152344 16.472656 C 15.289062 16.441406 15.65625 16.363281 15.847656 16.363281 C 16.097656 16.363281 16.199219 16.398438 16.199219 16.484375 C 16.199219 16.511719 16.191406 16.546875 16.175781 16.585938 C 16.125 16.707031 16.066406 16.863281 16.066406 17.007812 C 16.066406 17.191406 16.15625 17.40625 16.589844 17.40625 C 16.769531 17.40625 16.902344 17.367188 16.992188 17.292969 C 17.070312 17.226562 17.109375 17.128906 17.109375 17.007812 C 17.109375 16.863281 17.050781 16.707031 17.003906 16.585938 C 16.984375 16.546875 16.976562 16.511719 16.976562 16.484375 C 16.976562 16.398438 17.078125 16.363281 17.332031 16.363281 C 17.527344 16.363281 17.910156 16.449219 18.039062 16.476562 C 18.066406 16.605469 18.148438 16.988281 18.148438 17.183594 C 18.148438 17.265625 18.148438 17.476562 18.078125 17.527344 C 18.0625 17.535156 18.046875 17.539062 18.03125 17.539062 C 17.996094 17.539062 17.960938 17.527344 17.929688 17.511719 C 17.796875 17.457031 17.644531 17.40625 17.503906 17.40625 C 17.425781 17.40625 17.351562 17.421875 17.289062 17.464844 C 17.171875 17.542969 17.109375 17.699219 17.109375 17.925781 C 17.109375 18.152344 17.171875 18.308594 17.289062 18.386719 C 17.351562 18.429688 17.425781 18.449219 17.503906 18.449219 C 17.644531 18.449219 17.796875 18.394531 17.929688 18.339844 C 17.960938 18.328125 17.996094 18.3125 18.03125 18.3125 C 18.046875 18.3125 18.0625 18.316406 18.078125 18.328125 C 18.148438 18.375 18.148438 18.589844 18.148438 18.667969 C 18.148438 18.859375 18.070312 19.222656 18.039062 19.363281 L 15.648438 19.363281 C 15.664062 19.40625 15.671875 19.457031 15.667969 19.503906 L 18.039062 19.503906 C 18.105469 19.503906 18.164062 19.457031 18.175781 19.394531 Z M 18.175781 19.394531 " fill-opacity="1" fill-rule="nonzero"/></g><g clip-path="url(#6216ae6980)"><path fill="#737373" d="M 15.503906 15.304688 C 15.503906 15.519531 15.429688 15.703125 15.277344 15.855469 C 15.125 16.007812 14.9375 16.085938 14.722656 16.085938 C 14.507812 16.085938 14.324219 16.007812 14.171875 15.855469 C 14.015625 15.703125 13.941406 15.519531 13.941406 15.304688 C 13.941406 15.085938 14.015625 14.902344 14.171875 14.75 C 14.324219 14.597656 14.507812 14.519531 14.722656 14.519531 C 14.9375 14.519531 15.125 14.597656 15.277344 14.75 C 15.429688 14.902344 15.503906 15.085938 15.503906 15.304688 Z M 15.503906 15.304688 " fill-opacity="1" fill-rule="nonzero"/></g><g clip-path="url(#e26e90b04a)"><path fill="#737373" d="M 13.328125 20.546875 L 12.394531 21.777344 C 12.25 21.96875 12.289062 22.242188 12.476562 22.386719 C 12.558594 22.445312 12.648438 22.476562 12.742188 22.476562 C 12.871094 22.476562 13 22.414062 13.085938 22.304688 L 14.117188 20.949219 C 14.175781 20.867188 14.207031 20.769531 14.203125 20.667969 L 14.175781 20.050781 L 13.269531 19.234375 Z M 13.328125 20.546875 " fill-opacity="1" fill-rule="nonzero"/></g><path fill="#737373" d="M 15.488281 19.28125 L 14.351562 18.285156 L 14.140625 16.917969 C 14.117188 16.765625 13.972656 16.660156 13.820312 16.683594 C 13.667969 16.710938 13.566406 16.851562 13.589844 17.003906 L 13.820312 18.472656 C 13.828125 18.535156 13.863281 18.597656 13.910156 18.640625 L 15.121094 19.699219 C 15.175781 19.746094 15.238281 19.769531 15.304688 19.769531 C 15.382812 19.769531 15.460938 19.738281 15.515625 19.675781 C 15.617188 19.558594 15.605469 19.382812 15.488281 19.28125 Z M 15.488281 19.28125 " fill-opacity="1" fill-rule="nonzero"/><path fill="#737373" d="M 22.132812 19.769531 C 22.199219 19.769531 22.261719 19.746094 22.316406 19.699219 L 23.527344 18.640625 C 23.574219 18.597656 23.609375 18.535156 23.617188 18.472656 L 23.847656 17.003906 C 23.871094 16.851562 23.765625 16.710938 23.617188 16.683594 C 23.464844 16.660156 23.320312 16.765625 23.296875 16.917969 L 23.085938 18.285156 L 21.949219 19.28125 C 21.832031 19.382812 21.820312 19.558594 21.921875 19.675781 C 21.976562 19.738281 22.054688 19.769531 22.132812 19.769531 Z M 22.132812 19.769531 " fill-opacity="1" fill-rule="nonzero"/></svg>