<svg xmlns="http://www.w3.org/2000/svg" xmlns:xlink="http://www.w3.org/1999/xlink" width="50" zoomAndPan="magnify" viewBox="0 0 37.5 37.499999" height="50" preserveAspectRatio="xMidYMid meet" version="1.0"><defs><clipPath id="bdba7a3b35"><path d="M 5.808594 5.734375 L 31.640625 5.734375 L 31.640625 31.566406 L 5.808594 31.566406 Z M 5.808594 5.734375 " clip-rule="nonzero"/></clipPath><clipPath id="3a960f6118"><path d="M 18.726562 5.734375 C 11.59375 5.734375 5.808594 11.519531 5.808594 18.652344 C 5.808594 25.785156 11.59375 31.566406 18.726562 31.566406 C 25.859375 31.566406 31.640625 25.785156 31.640625 18.652344 C 31.640625 11.519531 25.859375 5.734375 18.726562 5.734375 Z M 18.726562 5.734375 " clip-rule="nonzero"/></clipPath><clipPath id="a541f4514d"><path d="M 12.808594 12.753906 L 24.648438 12.753906 L 24.648438 24.597656 L 12.808594 24.597656 Z M 12.808594 12.753906 " clip-rule="nonzero"/></clipPath></defs><g clip-path="url(#bdba7a3b35)"><g clip-path="url(#3a960f6118)"><path fill="#cff9ff" d="M 5.808594 5.734375 L 31.640625 5.734375 L 31.640625 31.566406 L 5.808594 31.566406 Z M 5.808594 5.734375 " fill-opacity="1" fill-rule="nonzero"/></g></g><g clip-path="url(#a541f4514d)"><path fill="#737373" d="M 13.109375 24.082031 L 16.167969 24.082031 C 16.371094 23.539062 16.734375 23.078125 17.191406 22.753906 C 16.738281 22.207031 16.050781 21.863281 15.285156 21.863281 C 14.109375 21.863281 13.125 22.675781 12.863281 23.773438 C 12.824219 23.929688 12.945312 24.082031 13.109375 24.082031 Z M 12.808594 17.722656 C 12.808594 16.953125 12.808594 16.183594 12.808594 15.414062 C 12.808594 15.160156 13.015625 14.953125 13.269531 14.953125 C 14.394531 14.953125 15.519531 14.953125 16.644531 14.953125 C 16.898438 14.953125 17.105469 15.160156 17.105469 15.414062 C 17.105469 16.183594 17.105469 16.953125 17.105469 17.722656 C 17.105469 17.976562 16.898438 18.183594 16.644531 18.183594 L 16.253906 18.183594 L 16.253906 19.121094 L 15.351562 18.183594 L 13.269531 18.183594 C 13.015625 18.183594 12.808594 17.976562 12.808594 17.722656 Z M 21.625 16.769531 C 21.515625 16.769531 21.425781 16.679688 21.425781 16.570312 C 21.425781 16.457031 21.515625 16.367188 21.625 16.367188 L 23.953125 16.367188 C 24.0625 16.367188 24.15625 16.457031 24.15625 16.570312 C 24.15625 16.679688 24.0625 16.769531 23.953125 16.769531 Z M 16.121094 15.535156 L 13.792969 15.535156 C 13.683594 15.535156 13.589844 15.628906 13.589844 15.738281 C 13.589844 15.851562 13.683594 15.941406 13.792969 15.941406 L 16.121094 15.941406 C 16.230469 15.941406 16.324219 15.851562 16.324219 15.738281 C 16.324219 15.628906 16.230469 15.535156 16.121094 15.535156 Z M 16.121094 17.195312 L 13.792969 17.195312 C 13.683594 17.195312 13.589844 17.285156 13.589844 17.398438 C 13.589844 17.511719 13.683594 17.601562 13.792969 17.601562 L 16.121094 17.601562 C 16.230469 17.601562 16.320312 17.511719 16.320312 17.398438 C 16.324219 17.285156 16.230469 17.195312 16.121094 17.195312 Z M 16.121094 16.367188 L 13.792969 16.367188 C 13.683594 16.367188 13.589844 16.457031 13.589844 16.570312 C 13.589844 16.679688 13.683594 16.769531 13.792969 16.769531 L 16.121094 16.769531 C 16.230469 16.769531 16.320312 16.679688 16.320312 16.570312 C 16.324219 16.457031 16.230469 16.367188 16.121094 16.367188 Z M 21.625 15.941406 C 21.515625 15.941406 21.425781 15.851562 21.425781 15.738281 C 21.425781 15.628906 21.515625 15.535156 21.625 15.535156 L 23.953125 15.535156 C 24.0625 15.535156 24.15625 15.628906 24.15625 15.738281 C 24.15625 15.851562 24.0625 15.941406 23.953125 15.941406 Z M 21.625 17.601562 C 21.515625 17.601562 21.425781 17.511719 21.425781 17.398438 C 21.425781 17.285156 21.515625 17.195312 21.625 17.195312 L 23.953125 17.195312 C 24.0625 17.195312 24.15625 17.285156 24.15625 17.398438 C 24.15625 17.511719 24.0625 17.601562 23.953125 17.601562 Z M 24.9375 17.722656 C 24.9375 16.953125 24.9375 16.183594 24.9375 15.414062 C 24.9375 15.160156 24.730469 14.953125 24.476562 14.953125 C 23.351562 14.953125 22.226562 14.953125 21.101562 14.953125 C 20.847656 14.953125 20.640625 15.160156 20.640625 15.414062 C 20.640625 16.183594 20.640625 16.953125 20.640625 17.722656 C 20.640625 17.976562 20.847656 18.183594 21.101562 18.183594 L 21.492188 18.183594 L 21.492188 19.121094 L 22.394531 18.183594 L 24.476562 18.183594 C 24.730469 18.183594 24.9375 17.976562 24.9375 17.722656 Z M 22.257812 14.550781 C 22.25 13.992188 22.246094 13.496094 22.246094 13.214844 C 22.246094 12.960938 22.039062 12.753906 21.785156 12.753906 C 20.660156 12.753906 17.007812 12.753906 15.882812 12.753906 C 15.628906 12.753906 15.425781 12.960938 15.425781 13.214844 C 15.425781 13.496094 15.429688 13.992188 15.433594 14.550781 L 16.351562 14.550781 C 16.289062 14.515625 16.246094 14.449219 16.246094 14.371094 C 16.246094 14.257812 16.335938 14.167969 16.445312 14.167969 L 21.300781 14.167969 C 21.410156 14.167969 21.5 14.257812 21.5 14.371094 C 21.5 14.449219 21.457031 14.515625 21.394531 14.550781 Z M 17.507812 17.644531 L 18.242188 17.644531 L 18.875 18.871094 L 19.507812 17.644531 L 20.238281 17.644531 L 20.238281 15.414062 C 20.238281 15.007812 20.523438 14.664062 20.902344 14.574219 L 16.84375 14.574219 C 17.222656 14.664062 17.507812 15.007812 17.507812 15.414062 Z M 19.785156 15.828125 C 19.894531 15.828125 19.984375 15.917969 19.984375 16.03125 C 19.984375 16.140625 19.894531 16.230469 19.785156 16.230469 L 17.960938 16.230469 C 17.851562 16.230469 17.761719 16.140625 17.761719 16.03125 C 17.761719 15.917969 17.851562 15.828125 17.960938 15.828125 Z M 19.785156 16.65625 C 19.894531 16.65625 19.984375 16.746094 19.984375 16.859375 C 19.984375 16.972656 19.894531 17.0625 19.785156 17.0625 L 17.960938 17.0625 C 17.851562 17.0625 17.761719 16.972656 17.761719 16.859375 C 17.761719 16.746094 17.851562 16.65625 17.960938 16.65625 Z M 19.785156 14.996094 C 19.894531 14.996094 19.984375 15.089844 19.984375 15.199219 C 19.984375 15.3125 19.894531 15.402344 19.785156 15.402344 L 17.960938 15.402344 C 17.851562 15.402344 17.761719 15.3125 17.761719 15.199219 C 17.761719 15.089844 17.851562 14.996094 17.960938 14.996094 Z M 21.300781 13.339844 C 21.410156 13.339844 21.5 13.429688 21.5 13.539062 C 21.5 13.652344 21.410156 13.742188 21.300781 13.742188 L 16.445312 13.742188 C 16.335938 13.742188 16.246094 13.652344 16.246094 13.539062 C 16.246094 13.429688 16.335938 13.339844 16.445312 13.339844 Z M 18.875 19.847656 C 18.179688 19.847656 17.613281 20.414062 17.613281 21.109375 C 17.613281 21.804688 18.179688 22.367188 18.875 22.367188 C 19.570312 22.367188 20.132812 21.804688 20.132812 21.109375 C 20.132812 20.414062 19.570312 19.847656 18.875 19.847656 Z M 21.050781 24.839844 L 16.695312 24.839844 C 16.53125 24.839844 16.414062 24.691406 16.453125 24.53125 C 16.710938 23.433594 17.699219 22.621094 18.875 22.621094 C 20.046875 22.621094 21.035156 23.433594 21.296875 24.53125 C 21.332031 24.691406 21.214844 24.839844 21.050781 24.839844 Z M 22.460938 19.089844 C 23.15625 19.089844 23.71875 19.65625 23.71875 20.351562 C 23.71875 21.046875 23.15625 21.609375 22.460938 21.609375 C 21.765625 21.609375 21.203125 21.046875 21.203125 20.351562 C 21.203125 19.65625 21.765625 19.089844 22.460938 19.089844 Z M 15.285156 19.089844 C 14.589844 19.089844 14.027344 19.65625 14.027344 20.351562 C 14.027344 21.046875 14.589844 21.609375 15.285156 21.609375 C 15.980469 21.609375 16.542969 21.046875 16.542969 20.351562 C 16.542969 19.65625 15.980469 19.089844 15.285156 19.089844 Z M 21.578125 24.082031 L 24.636719 24.082031 C 24.800781 24.082031 24.921875 23.929688 24.882812 23.773438 C 24.621094 22.675781 23.636719 21.863281 22.460938 21.863281 C 21.695312 21.863281 21.007812 22.207031 20.554688 22.753906 C 21.011719 23.078125 21.375 23.539062 21.578125 24.082031 Z M 21.578125 24.082031 " fill-opacity="1" fill-rule="evenodd"/></g></svg>