<svg xmlns="http://www.w3.org/2000/svg" xmlns:xlink="http://www.w3.org/1999/xlink" width="50" zoomAndPan="magnify" viewBox="0 0 37.5 37.499999" height="50" preserveAspectRatio="xMidYMid meet" version="1.0"><defs><clipPath id="a569c53772"><path d="M 5.808594 5.734375 L 31.640625 5.734375 L 31.640625 31.566406 L 5.808594 31.566406 Z M 5.808594 5.734375 " clip-rule="nonzero"/></clipPath><clipPath id="6ca37fa3db"><path d="M 18.726562 5.734375 C 11.59375 5.734375 5.808594 11.519531 5.808594 18.652344 C 5.808594 25.785156 11.59375 31.566406 18.726562 31.566406 C 25.859375 31.566406 31.640625 25.785156 31.640625 18.652344 C 31.640625 11.519531 25.859375 5.734375 18.726562 5.734375 Z M 18.726562 5.734375 " clip-rule="nonzero"/></clipPath><clipPath id="cbae9b2981"><path d="M 14 13 L 23.429688 13 L 23.429688 25 L 14 25 Z M 14 13 " clip-rule="nonzero"/></clipPath><clipPath id="eb06146a26"><path d="M 13.808594 12.546875 L 23 12.546875 L 23 24 L 13.808594 24 Z M 13.808594 12.546875 " clip-rule="nonzero"/></clipPath></defs><g clip-path="url(#a569c53772)"><g clip-path="url(#6ca37fa3db)"><path fill="#cff9ff" d="M 5.808594 5.734375 L 31.640625 5.734375 L 31.640625 31.566406 L 5.808594 31.566406 Z M 5.808594 5.734375 " fill-opacity="1" fill-rule="nonzero"/></g></g><g clip-path="url(#cbae9b2981)"><path fill="#737373" d="M 14.640625 24.671875 L 23.109375 24.671875 L 23.109375 13.382812 L 14.640625 13.382812 Z M 14.640625 24.671875 " fill-opacity="1" fill-rule="nonzero"/><path fill="#ffffff" d="M 14.640625 24.671875 L 14.640625 24.753906 L 23.109375 24.753906 C 23.128906 24.753906 23.148438 24.742188 23.164062 24.730469 C 23.179688 24.714844 23.1875 24.695312 23.1875 24.671875 L 23.1875 13.382812 C 23.1875 13.359375 23.179688 13.339844 23.164062 13.324219 C 23.148438 13.3125 23.128906 13.304688 23.109375 13.304688 L 14.640625 13.304688 C 14.617188 13.304688 14.597656 13.3125 14.582031 13.324219 C 14.570312 13.339844 14.558594 13.359375 14.558594 13.382812 L 14.558594 24.671875 C 14.558594 24.695312 14.570312 24.714844 14.582031 24.730469 C 14.597656 24.742188 14.617188 24.753906 14.640625 24.753906 L 14.640625 24.671875 L 14.71875 24.671875 L 14.71875 13.460938 L 23.03125 13.460938 L 23.03125 24.59375 L 14.640625 24.59375 L 14.640625 24.671875 L 14.71875 24.671875 L 14.640625 24.671875 " fill-opacity="1" fill-rule="nonzero"/></g><g clip-path="url(#eb06146a26)"><path fill="#737373" d="M 14.558594 23.84375 L 13.964844 23.84375 L 13.964844 12.707031 L 22.277344 12.707031 L 22.277344 13.304688 L 14.640625 13.304688 C 14.617188 13.304688 14.597656 13.3125 14.582031 13.324219 C 14.570312 13.339844 14.558594 13.359375 14.558594 13.382812 L 14.558594 23.84375 " fill-opacity="1" fill-rule="nonzero"/><path fill="#ffffff" d="M 14.558594 24 L 13.886719 24 C 13.867188 24 13.84375 23.992188 13.832031 23.976562 C 13.816406 23.960938 13.808594 23.941406 13.808594 23.921875 L 13.808594 12.628906 C 13.808594 12.609375 13.816406 12.585938 13.832031 12.574219 C 13.84375 12.558594 13.867188 12.550781 13.886719 12.550781 L 22.355469 12.550781 L 22.355469 12.628906 L 22.355469 12.550781 C 22.375 12.550781 22.394531 12.558594 22.410156 12.574219 C 22.425781 12.585938 22.433594 12.609375 22.433594 12.628906 L 22.433594 13.304688 L 14.640625 13.304688 L 22.277344 13.304688 L 22.277344 12.707031 L 13.964844 12.707031 L 13.964844 23.84375 L 14.558594 23.84375 L 14.558594 24 " fill-opacity="1" fill-rule="nonzero"/></g><path fill="#ffffff" d="M 14.71875 23.921875 L 14.71875 13.460938 L 22.355469 13.460938 L 14.71875 13.460938 L 14.71875 23.921875 " fill-opacity="1" fill-rule="nonzero"/><path fill="#ffffff" d="M 14.640625 24 L 14.558594 24 L 14.558594 13.382812 C 14.558594 13.359375 14.570312 13.339844 14.582031 13.324219 C 14.597656 13.3125 14.617188 13.304688 14.640625 13.304688 L 22.433594 13.304688 L 22.433594 13.382812 C 22.433594 13.402344 22.425781 13.421875 22.410156 13.4375 C 22.394531 13.453125 22.375 13.460938 22.355469 13.460938 L 14.71875 13.460938 L 14.71875 23.921875 C 14.71875 23.941406 14.707031 23.960938 14.695312 23.976562 C 14.679688 23.992188 14.660156 24 14.640625 24 " fill-opacity="1" fill-rule="nonzero"/><path fill="#0097b2" d="M 20.101562 16.695312 L 22.132812 16.695312 L 22.132812 14.605469 L 20.101562 14.605469 L 20.101562 16.695312 " fill-opacity="1" fill-rule="nonzero"/><path fill="#ffffff" d="M 20.101562 16.695312 L 20.101562 16.773438 L 22.132812 16.773438 C 22.15625 16.773438 22.175781 16.761719 22.1875 16.75 C 22.203125 16.734375 22.210938 16.714844 22.210938 16.695312 L 22.210938 14.605469 C 22.210938 14.585938 22.203125 14.5625 22.1875 14.550781 C 22.175781 14.535156 22.15625 14.527344 22.132812 14.527344 L 20.101562 14.527344 C 20.082031 14.527344 20.058594 14.535156 20.046875 14.550781 C 20.03125 14.5625 20.023438 14.585938 20.023438 14.605469 L 20.023438 16.695312 C 20.023438 16.714844 20.03125 16.734375 20.046875 16.75 C 20.058594 16.761719 20.082031 16.773438 20.101562 16.773438 L 20.101562 16.695312 L 20.179688 16.695312 L 20.179688 14.683594 L 22.054688 14.683594 L 22.054688 16.617188 L 20.101562 16.617188 L 20.101562 16.695312 L 20.179688 16.695312 L 20.101562 16.695312 " fill-opacity="1" fill-rule="nonzero"/><path fill="#ffffff" d="M 19.394531 15.570312 L 15.613281 15.570312 C 15.570312 15.570312 15.535156 15.605469 15.535156 15.648438 C 15.535156 15.691406 15.570312 15.726562 15.613281 15.726562 L 19.394531 15.726562 C 19.4375 15.726562 19.472656 15.691406 19.472656 15.648438 C 19.472656 15.605469 19.4375 15.570312 19.394531 15.570312 " fill-opacity="1" fill-rule="nonzero"/><path fill="#ffffff" d="M 19.394531 14.695312 L 15.613281 14.695312 C 15.570312 14.695312 15.535156 14.730469 15.535156 14.773438 C 15.535156 14.816406 15.570312 14.851562 15.613281 14.851562 L 19.394531 14.851562 C 19.4375 14.851562 19.472656 14.816406 19.472656 14.773438 C 19.472656 14.730469 19.4375 14.695312 19.394531 14.695312 " fill-opacity="1" fill-rule="nonzero"/><path fill="#ffffff" d="M 19.394531 16.445312 L 15.613281 16.445312 C 15.570312 16.445312 15.535156 16.480469 15.535156 16.523438 C 15.535156 16.566406 15.570312 16.601562 15.613281 16.601562 L 19.394531 16.601562 C 19.4375 16.601562 19.472656 16.566406 19.472656 16.523438 C 19.472656 16.480469 19.4375 16.445312 19.394531 16.445312 " fill-opacity="1" fill-rule="nonzero"/><path fill="#0097b2" d="M 20.101562 20.015625 L 22.132812 20.015625 L 22.132812 17.925781 L 20.101562 17.925781 L 20.101562 20.015625 " fill-opacity="1" fill-rule="nonzero"/><path fill="#ffffff" d="M 20.101562 20.015625 L 20.101562 20.09375 L 22.132812 20.09375 C 22.15625 20.09375 22.175781 20.085938 22.1875 20.070312 C 22.203125 20.054688 22.210938 20.035156 22.210938 20.015625 L 22.210938 17.925781 C 22.210938 17.90625 22.203125 17.886719 22.1875 17.871094 C 22.175781 17.855469 22.15625 17.847656 22.132812 17.847656 L 20.101562 17.847656 C 20.082031 17.847656 20.058594 17.855469 20.046875 17.871094 C 20.03125 17.886719 20.023438 17.90625 20.023438 17.925781 L 20.023438 20.015625 C 20.023438 20.035156 20.03125 20.054688 20.046875 20.070312 C 20.058594 20.085938 20.082031 20.09375 20.101562 20.09375 L 20.101562 20.015625 L 20.179688 20.015625 L 20.179688 18.003906 L 22.054688 18.003906 L 22.054688 19.9375 L 20.101562 19.9375 L 20.101562 20.015625 L 20.179688 20.015625 L 20.101562 20.015625 " fill-opacity="1" fill-rule="nonzero"/><path fill="#ffffff" d="M 19.394531 18.890625 L 15.613281 18.890625 C 15.570312 18.890625 15.535156 18.925781 15.535156 18.972656 C 15.535156 19.015625 15.570312 19.050781 15.613281 19.050781 L 19.394531 19.050781 C 19.4375 19.050781 19.472656 19.015625 19.472656 18.972656 C 19.472656 18.925781 19.4375 18.890625 19.394531 18.890625 " fill-opacity="1" fill-rule="nonzero"/><path fill="#ffffff" d="M 19.394531 18.015625 L 15.613281 18.015625 C 15.570312 18.015625 15.535156 18.050781 15.535156 18.09375 C 15.535156 18.140625 15.570312 18.175781 15.613281 18.175781 L 19.394531 18.175781 C 19.4375 18.175781 19.472656 18.140625 19.472656 18.09375 C 19.472656 18.050781 19.4375 18.015625 19.394531 18.015625 " fill-opacity="1" fill-rule="nonzero"/><path fill="#ffffff" d="M 19.394531 19.769531 L 15.613281 19.769531 C 15.570312 19.769531 15.535156 19.804688 15.535156 19.847656 C 15.535156 19.890625 15.570312 19.925781 15.613281 19.925781 L 19.394531 19.925781 C 19.4375 19.925781 19.472656 19.890625 19.472656 19.847656 C 19.472656 19.804688 19.4375 19.769531 19.394531 19.769531 " fill-opacity="1" fill-rule="nonzero"/><path fill="#0097b2" d="M 20.101562 23.449219 L 22.132812 23.449219 L 22.132812 21.363281 L 20.101562 21.363281 L 20.101562 23.449219 " fill-opacity="1" fill-rule="nonzero"/><path fill="#ffffff" d="M 20.101562 23.449219 L 20.101562 23.527344 L 22.132812 23.527344 C 22.15625 23.527344 22.175781 23.519531 22.1875 23.507812 C 22.203125 23.492188 22.210938 23.472656 22.210938 23.449219 L 22.210938 21.363281 C 22.210938 21.339844 22.203125 21.320312 22.1875 21.304688 C 22.175781 21.292969 22.15625 21.285156 22.132812 21.285156 L 20.101562 21.285156 C 20.082031 21.285156 20.058594 21.292969 20.046875 21.304688 C 20.03125 21.320312 20.023438 21.339844 20.023438 21.363281 L 20.023438 23.449219 C 20.023438 23.472656 20.03125 23.492188 20.046875 23.507812 C 20.058594 23.519531 20.082031 23.527344 20.101562 23.527344 L 20.101562 23.449219 L 20.179688 23.449219 L 20.179688 21.441406 L 22.054688 21.441406 L 22.054688 23.371094 L 20.101562 23.371094 L 20.101562 23.449219 L 20.179688 23.449219 L 20.101562 23.449219 " fill-opacity="1" fill-rule="nonzero"/><path fill="#ffffff" d="M 19.394531 22.328125 L 15.613281 22.328125 C 15.570312 22.328125 15.535156 22.363281 15.535156 22.40625 C 15.535156 22.449219 15.570312 22.484375 15.613281 22.484375 L 19.394531 22.484375 C 19.4375 22.484375 19.472656 22.449219 19.472656 22.40625 C 19.472656 22.363281 19.4375 22.328125 19.394531 22.328125 " fill-opacity="1" fill-rule="nonzero"/><path fill="#ffffff" d="M 19.394531 21.453125 L 15.613281 21.453125 C 15.570312 21.453125 15.535156 21.488281 15.535156 21.53125 C 15.535156 21.574219 15.570312 21.609375 15.613281 21.609375 L 19.394531 21.609375 C 19.4375 21.609375 19.472656 21.574219 19.472656 21.53125 C 19.472656 21.488281 19.4375 21.453125 19.394531 21.453125 " fill-opacity="1" fill-rule="nonzero"/><path fill="#ffffff" d="M 19.394531 23.203125 L 15.613281 23.203125 C 15.570312 23.203125 15.535156 23.238281 15.535156 23.28125 C 15.535156 23.324219 15.570312 23.359375 15.613281 23.359375 L 19.394531 23.359375 C 19.4375 23.359375 19.472656 23.324219 19.472656 23.28125 C 19.472656 23.238281 19.4375 23.203125 19.394531 23.203125 " fill-opacity="1" fill-rule="nonzero"/></svg>