<svg xmlns="http://www.w3.org/2000/svg" xmlns:xlink="http://www.w3.org/1999/xlink" width="50" zoomAndPan="magnify" viewBox="0 0 37.5 37.499999" height="50" preserveAspectRatio="xMidYMid meet" version="1.0"><defs><clipPath id="bada2410bf"><path d="M 5.808594 5.734375 L 31.640625 5.734375 L 31.640625 31.566406 L 5.808594 31.566406 Z M 5.808594 5.734375 " clip-rule="nonzero"/></clipPath><clipPath id="c8df8075e8"><path d="M 18.726562 5.734375 C 11.59375 5.734375 5.808594 11.519531 5.808594 18.652344 C 5.808594 25.785156 11.59375 31.566406 18.726562 31.566406 C 25.859375 31.566406 31.640625 25.785156 31.640625 18.652344 C 31.640625 11.519531 25.859375 5.734375 18.726562 5.734375 Z M 18.726562 5.734375 " clip-rule="nonzero"/></clipPath><clipPath id="d9630daf95"><path d="M 13 13.078125 L 23.953125 13.078125 L 23.953125 24.179688 L 13 24.179688 Z M 13 13.078125 " clip-rule="nonzero"/></clipPath></defs><g clip-path="url(#bada2410bf)"><g clip-path="url(#c8df8075e8)"><path fill="#cff9ff" d="M 5.808594 5.734375 L 31.640625 5.734375 L 31.640625 31.566406 L 5.808594 31.566406 Z M 5.808594 5.734375 " fill-opacity="1" fill-rule="nonzero"/></g></g><path fill="#737373" d="M 16.640625 20.171875 C 16.703125 20.171875 16.765625 20.148438 16.8125 20.097656 L 17.171875 19.742188 C 17.265625 19.648438 17.265625 19.492188 17.171875 19.398438 C 17.074219 19.300781 16.921875 19.300781 16.824219 19.398438 L 16.46875 19.753906 C 16.371094 19.847656 16.371094 20.003906 16.46875 20.097656 C 16.515625 20.148438 16.578125 20.171875 16.640625 20.171875 Z M 16.640625 20.171875 " fill-opacity="1" fill-rule="nonzero"/><path fill="#737373" d="M 16.261719 20.304688 C 16.167969 20.210938 16.011719 20.210938 15.914062 20.304688 L 13.929688 22.292969 C 13.832031 22.386719 13.832031 22.542969 13.929688 22.636719 C 13.976562 22.6875 14.039062 22.710938 14.101562 22.710938 C 14.164062 22.710938 14.226562 22.6875 14.273438 22.636719 L 16.261719 20.652344 C 16.355469 20.554688 16.355469 20.402344 16.261719 20.304688 Z M 16.261719 20.304688 " fill-opacity="1" fill-rule="nonzero"/><path fill="#737373" d="M 17.480469 20.050781 L 15.753906 21.777344 C 15.65625 21.875 15.65625 22.027344 15.753906 22.125 C 15.800781 22.171875 15.863281 22.195312 15.925781 22.195312 C 15.988281 22.195312 16.050781 22.171875 16.097656 22.125 L 17.824219 20.398438 C 17.921875 20.300781 17.921875 20.148438 17.824219 20.050781 C 17.730469 19.957031 17.574219 19.957031 17.480469 20.050781 Z M 17.480469 20.050781 " fill-opacity="1" fill-rule="nonzero"/><path fill="#737373" d="M 15.125 22.40625 L 14.582031 22.949219 C 14.488281 23.042969 14.488281 23.199219 14.582031 23.292969 C 14.632812 23.339844 14.695312 23.363281 14.757812 23.363281 C 14.820312 23.363281 14.882812 23.339844 14.929688 23.292969 L 15.46875 22.753906 C 15.566406 22.65625 15.566406 22.503906 15.46875 22.40625 C 15.375 22.3125 15.21875 22.3125 15.125 22.40625 Z M 15.125 22.40625 " fill-opacity="1" fill-rule="nonzero"/><g clip-path="url(#d9630daf95)"><path fill="#737373" d="M 14.847656 15.484375 C 14.714844 15.621094 14.492188 15.621094 14.355469 15.484375 L 13.523438 14.652344 C 13.519531 14.652344 13.519531 14.648438 13.515625 14.648438 C 13.511719 14.640625 13.503906 14.636719 13.496094 14.628906 C 13.492188 14.625 13.484375 14.621094 13.476562 14.617188 C 13.472656 14.613281 13.464844 14.609375 13.457031 14.605469 C 13.449219 14.601562 13.441406 14.597656 13.433594 14.597656 C 13.429688 14.59375 13.429688 14.59375 13.425781 14.59375 C 13.421875 14.589844 13.417969 14.589844 13.414062 14.589844 C 13.40625 14.585938 13.394531 14.585938 13.386719 14.585938 C 13.378906 14.582031 13.371094 14.582031 13.363281 14.582031 C 13.355469 14.582031 13.347656 14.582031 13.339844 14.582031 C 13.332031 14.582031 13.324219 14.582031 13.316406 14.582031 C 13.308594 14.585938 13.300781 14.585938 13.292969 14.589844 C 13.285156 14.589844 13.28125 14.59375 13.273438 14.59375 C 13.265625 14.597656 13.257812 14.601562 13.25 14.605469 C 13.242188 14.605469 13.234375 14.609375 13.230469 14.613281 C 13.222656 14.617188 13.214844 14.621094 13.207031 14.628906 C 13.203125 14.632812 13.195312 14.636719 13.191406 14.644531 C 13.1875 14.644531 13.179688 14.648438 13.179688 14.652344 C 13.175781 14.65625 13.175781 14.65625 13.171875 14.660156 C 13.167969 14.664062 13.160156 14.671875 13.15625 14.679688 C 13.152344 14.683594 13.148438 14.691406 13.144531 14.699219 C 13.140625 14.703125 13.136719 14.710938 13.132812 14.71875 C 13.128906 14.726562 13.125 14.734375 13.121094 14.742188 C 13.121094 14.746094 13.121094 14.746094 13.117188 14.75 C 12.859375 15.542969 13.066406 16.40625 13.65625 16.996094 C 14.078125 17.417969 14.640625 17.644531 15.21875 17.644531 C 15.445312 17.644531 15.671875 17.609375 15.894531 17.535156 L 16.792969 18.4375 C 16.640625 18.453125 16.492188 18.519531 16.375 18.636719 L 13.40625 21.605469 C 13 22.011719 13 22.675781 13.40625 23.082031 L 14.140625 23.816406 C 14.34375 24.019531 14.613281 24.121094 14.878906 24.121094 C 15.148438 24.121094 15.414062 24.019531 15.617188 23.816406 L 18.585938 20.847656 C 18.703125 20.730469 18.769531 20.582031 18.785156 20.425781 L 19.683594 21.328125 C 19.429688 22.113281 19.636719 22.976562 20.226562 23.566406 C 20.648438 23.988281 21.207031 24.214844 21.78125 24.214844 C 22.011719 24.214844 22.246094 24.179688 22.472656 24.105469 C 22.476562 24.101562 22.476562 24.101562 22.480469 24.101562 C 22.488281 24.097656 22.496094 24.09375 22.503906 24.089844 C 22.511719 24.085938 22.519531 24.082031 22.523438 24.078125 C 22.53125 24.074219 22.539062 24.070312 22.542969 24.066406 C 22.550781 24.0625 22.558594 24.054688 22.5625 24.050781 C 22.566406 24.046875 22.566406 24.046875 22.570312 24.042969 C 22.574219 24.042969 22.574219 24.039062 22.578125 24.035156 C 22.585938 24.027344 22.589844 24.019531 22.59375 24.011719 C 22.601562 24.007812 22.605469 24 22.609375 23.992188 C 22.613281 23.988281 22.617188 23.980469 22.617188 23.972656 C 22.621094 23.964844 22.625 23.957031 22.628906 23.949219 C 22.628906 23.945312 22.632812 23.9375 22.632812 23.929688 C 22.636719 23.921875 22.636719 23.914062 22.636719 23.90625 C 22.640625 23.898438 22.640625 23.890625 22.640625 23.882812 C 22.640625 23.875 22.640625 23.867188 22.640625 23.859375 C 22.640625 23.851562 22.640625 23.84375 22.636719 23.835938 C 22.636719 23.828125 22.636719 23.816406 22.632812 23.808594 C 22.632812 23.804688 22.632812 23.800781 22.628906 23.796875 C 22.628906 23.792969 22.628906 23.792969 22.625 23.789062 C 22.625 23.78125 22.621094 23.773438 22.617188 23.765625 C 22.613281 23.757812 22.609375 23.75 22.605469 23.746094 C 22.601562 23.738281 22.597656 23.730469 22.59375 23.726562 C 22.585938 23.71875 22.582031 23.710938 22.574219 23.703125 C 22.574219 23.703125 22.570312 23.699219 22.570312 23.699219 L 21.738281 22.867188 C 21.601562 22.730469 21.601562 22.507812 21.738281 22.375 L 22.15625 21.957031 C 22.289062 21.820312 22.511719 21.820312 22.648438 21.957031 L 23.480469 22.789062 C 23.484375 22.789062 23.484375 22.792969 23.488281 22.792969 C 23.492188 22.800781 23.5 22.804688 23.507812 22.808594 C 23.511719 22.816406 23.519531 22.820312 23.527344 22.824219 C 23.53125 22.828125 23.539062 22.832031 23.546875 22.832031 C 23.554688 22.835938 23.5625 22.839844 23.570312 22.84375 C 23.574219 22.84375 23.574219 22.847656 23.578125 22.847656 C 23.578125 22.847656 23.582031 22.847656 23.585938 22.847656 C 23.605469 22.855469 23.628906 22.859375 23.652344 22.859375 C 23.652344 22.859375 23.652344 22.859375 23.65625 22.859375 C 23.675781 22.859375 23.699219 22.855469 23.71875 22.847656 C 23.726562 22.847656 23.730469 22.847656 23.734375 22.84375 C 23.753906 22.839844 23.773438 22.828125 23.792969 22.816406 C 23.796875 22.8125 23.796875 22.8125 23.800781 22.808594 C 23.808594 22.800781 23.820312 22.796875 23.828125 22.789062 C 23.832031 22.78125 23.835938 22.773438 23.84375 22.769531 C 23.847656 22.765625 23.847656 22.761719 23.851562 22.757812 C 23.867188 22.738281 23.875 22.71875 23.882812 22.695312 C 23.882812 22.695312 23.886719 22.695312 23.886719 22.691406 C 24.144531 21.898438 23.941406 21.035156 23.347656 20.445312 C 22.757812 19.855469 21.894531 19.648438 21.109375 19.902344 L 19.644531 18.4375 L 22.308594 15.773438 L 22.859375 15.808594 C 22.863281 15.8125 22.871094 15.8125 22.875 15.8125 C 22.964844 15.8125 23.046875 15.761719 23.089844 15.683594 L 23.972656 14.09375 C 24.023438 14 24.007812 13.878906 23.929688 13.804688 L 23.871094 13.746094 C 23.871094 13.742188 23.871094 13.742188 23.871094 13.742188 L 23.476562 13.351562 L 23.417969 13.292969 C 23.34375 13.214844 23.222656 13.199219 23.128906 13.25 L 21.539062 14.132812 C 21.453125 14.179688 21.40625 14.269531 21.414062 14.363281 L 21.449219 14.914062 L 18.785156 17.578125 L 17.320312 16.113281 C 17.574219 15.328125 17.367188 14.464844 16.777344 13.875 C 16.1875 13.28125 15.324219 13.078125 14.53125 13.335938 C 14.527344 13.335938 14.527344 13.339844 14.523438 13.339844 C 14.515625 13.34375 14.507812 13.347656 14.5 13.351562 C 14.492188 13.355469 14.484375 13.355469 14.480469 13.359375 C 14.472656 13.363281 14.464844 13.371094 14.460938 13.375 C 14.453125 13.378906 14.445312 13.386719 14.441406 13.390625 C 14.4375 13.394531 14.4375 13.394531 14.433594 13.394531 C 14.429688 13.398438 14.429688 13.402344 14.425781 13.40625 C 14.417969 13.414062 14.414062 13.421875 14.410156 13.425781 C 14.402344 13.433594 14.398438 13.441406 14.394531 13.445312 C 14.390625 13.453125 14.386719 13.460938 14.386719 13.46875 C 14.382812 13.476562 14.378906 13.484375 14.375 13.488281 C 14.375 13.496094 14.371094 13.503906 14.371094 13.511719 C 14.367188 13.519531 14.367188 13.527344 14.367188 13.535156 C 14.363281 13.542969 14.363281 13.550781 14.363281 13.558594 C 14.363281 13.566406 14.363281 13.574219 14.363281 13.582031 C 14.363281 13.589844 14.363281 13.597656 14.367188 13.605469 C 14.367188 13.613281 14.371094 13.621094 14.371094 13.632812 C 14.371094 13.636719 14.375 13.640625 14.375 13.644531 C 14.375 13.648438 14.375 13.648438 14.378906 13.652344 C 14.378906 13.660156 14.382812 13.667969 14.386719 13.675781 C 14.390625 13.683594 14.394531 13.691406 14.398438 13.695312 C 14.402344 13.703125 14.40625 13.707031 14.410156 13.714844 C 14.417969 13.722656 14.421875 13.730469 14.429688 13.734375 C 14.429688 13.738281 14.433594 13.738281 14.433594 13.742188 L 15.265625 14.574219 C 15.402344 14.710938 15.402344 14.929688 15.265625 15.066406 Z M 18.242188 20.503906 L 15.273438 23.46875 C 15.054688 23.6875 14.703125 23.6875 14.484375 23.46875 L 13.753906 22.734375 C 13.535156 22.519531 13.535156 22.167969 13.753906 21.949219 L 16.71875 18.980469 C 16.804688 18.898438 16.945312 18.898438 17.027344 18.980469 L 17.226562 19.179688 C 17.320312 19.273438 17.476562 19.273438 17.570312 19.179688 C 17.667969 19.082031 17.667969 18.929688 17.570312 18.832031 L 17.535156 18.796875 L 17.695312 18.636719 C 17.761719 18.570312 17.871094 18.570312 17.941406 18.636719 L 18.003906 18.703125 C 18.003906 18.703125 18.007812 18.703125 18.007812 18.703125 L 18.519531 19.214844 L 18.582031 19.28125 C 18.652344 19.351562 18.652344 19.460938 18.582031 19.527344 L 18.425781 19.6875 L 18.144531 19.40625 C 18.046875 19.308594 17.894531 19.308594 17.796875 19.40625 C 17.703125 19.5 17.703125 19.65625 17.796875 19.75 L 18.242188 20.191406 C 18.324219 20.277344 18.324219 20.417969 18.242188 20.503906 Z M 20.875 20.359375 C 20.882812 20.367188 20.890625 20.371094 20.898438 20.378906 C 20.902344 20.382812 20.90625 20.386719 20.910156 20.386719 C 20.953125 20.417969 21 20.429688 21.046875 20.429688 C 21.082031 20.429688 21.113281 20.421875 21.144531 20.410156 C 21.785156 20.152344 22.515625 20.300781 23.003906 20.789062 C 23.359375 21.148438 23.535156 21.632812 23.503906 22.121094 L 22.996094 21.609375 C 22.667969 21.285156 22.136719 21.285156 21.808594 21.609375 L 21.390625 22.027344 C 21.066406 22.355469 21.066406 22.886719 21.394531 23.214844 L 21.902344 23.71875 C 21.414062 23.753906 20.929688 23.578125 20.570312 23.222656 C 20.085938 22.734375 19.933594 22.007812 20.1875 21.371094 C 20.210938 21.359375 20.234375 21.34375 20.253906 21.324219 L 20.460938 21.117188 C 20.554688 21.019531 20.554688 20.863281 20.460938 20.769531 C 20.363281 20.675781 20.210938 20.675781 20.113281 20.769531 L 19.96875 20.917969 L 18.925781 19.875 L 18.929688 19.871094 C 19.152344 19.652344 19.179688 19.3125 19.023438 19.058594 L 19.296875 18.78125 Z M 23.203125 13.769531 L 23.453125 14.019531 L 22.738281 15.3125 L 22.230469 15.277344 C 22.226562 15.277344 22.226562 15.277344 22.222656 15.277344 C 22.214844 15.277344 22.207031 15.277344 22.199219 15.277344 C 22.191406 15.277344 22.179688 15.277344 22.171875 15.28125 C 22.167969 15.28125 22.164062 15.28125 22.15625 15.285156 C 22.144531 15.285156 22.136719 15.289062 22.125 15.292969 C 22.121094 15.292969 22.117188 15.296875 22.117188 15.296875 C 22.105469 15.300781 22.09375 15.308594 22.082031 15.316406 C 22.078125 15.316406 22.078125 15.316406 22.074219 15.320312 C 22.0625 15.328125 22.054688 15.335938 22.042969 15.34375 C 22.042969 15.347656 22.042969 15.347656 22.042969 15.347656 L 18.691406 18.699219 L 18.523438 18.53125 L 21.875 15.179688 C 21.875 15.179688 21.875 15.179688 21.878906 15.179688 C 21.886719 15.167969 21.894531 15.160156 21.902344 15.148438 C 21.902344 15.144531 21.90625 15.144531 21.910156 15.140625 C 21.914062 15.128906 21.917969 15.121094 21.921875 15.109375 C 21.925781 15.105469 21.929688 15.101562 21.929688 15.097656 C 21.933594 15.085938 21.9375 15.078125 21.9375 15.066406 C 21.941406 15.0625 21.941406 15.054688 21.941406 15.050781 C 21.945312 15.042969 21.945312 15.03125 21.945312 15.023438 C 21.945312 15.015625 21.945312 15.007812 21.945312 15 C 21.945312 14.996094 21.945312 14.996094 21.945312 14.992188 L 21.910156 14.484375 Z M 15.609375 14.226562 L 15.101562 13.71875 C 15.589844 13.6875 16.074219 13.863281 16.433594 14.21875 C 16.914062 14.699219 17.066406 15.414062 16.824219 16.050781 C 16.8125 16.058594 16.800781 16.066406 16.789062 16.078125 L 16.582031 16.285156 C 16.488281 16.382812 16.488281 16.535156 16.582031 16.632812 C 16.632812 16.679688 16.691406 16.703125 16.753906 16.703125 C 16.816406 16.703125 16.882812 16.679688 16.929688 16.628906 L 17.035156 16.519531 L 18.441406 17.925781 L 18.164062 18.199219 C 17.910156 18.042969 17.570312 18.070312 17.347656 18.292969 L 17.34375 18.296875 L 16.132812 17.085938 C 16.066406 17.015625 15.960938 16.988281 15.867188 17.027344 C 15.222656 17.289062 14.492188 17.140625 14 16.652344 C 13.644531 16.292969 13.46875 15.808594 13.5 15.320312 L 14.007812 15.828125 C 14.171875 15.992188 14.386719 16.074219 14.601562 16.074219 C 14.816406 16.074219 15.03125 15.992188 15.195312 15.828125 L 15.613281 15.414062 C 15.9375 15.085938 15.9375 14.554688 15.609375 14.226562 Z M 15.609375 14.226562 " fill-opacity="1" fill-rule="nonzero"/></g></svg>