<svg xmlns="http://www.w3.org/2000/svg" xmlns:xlink="http://www.w3.org/1999/xlink" width="50" zoomAndPan="magnify" viewBox="0 0 37.5 37.499999" height="50" preserveAspectRatio="xMidYMid meet" version="1.0"><defs><clipPath id="9d1a066754"><path d="M 5.808594 5.734375 L 31.640625 5.734375 L 31.640625 31.566406 L 5.808594 31.566406 Z M 5.808594 5.734375 " clip-rule="nonzero"/></clipPath><clipPath id="da8d4e049b"><path d="M 18.726562 5.734375 C 11.59375 5.734375 5.808594 11.519531 5.808594 18.652344 C 5.808594 25.785156 11.59375 31.566406 18.726562 31.566406 C 25.859375 31.566406 31.640625 25.785156 31.640625 18.652344 C 31.640625 11.519531 25.859375 5.734375 18.726562 5.734375 Z M 18.726562 5.734375 " clip-rule="nonzero"/></clipPath><clipPath id="bdd6a68e49"><path d="M 13 12.6875 L 24.972656 12.6875 L 24.972656 24.527344 L 13 24.527344 Z M 13 12.6875 " clip-rule="nonzero"/></clipPath><clipPath id="9fdc9a1b0f"><path d="M 13 12.6875 L 20 12.6875 L 20 20 L 13 20 Z M 13 12.6875 " clip-rule="nonzero"/></clipPath><clipPath id="b84d4b5abd"><path d="M 12.390625 12.6875 L 19 12.6875 L 19 20 L 12.390625 20 Z M 12.390625 12.6875 " clip-rule="nonzero"/></clipPath></defs><g clip-path="url(#9d1a066754)"><g clip-path="url(#da8d4e049b)"><path fill="#cff9ff" d="M 5.808594 5.734375 L 31.640625 5.734375 L 31.640625 31.566406 L 5.808594 31.566406 Z M 5.808594 5.734375 " fill-opacity="1" fill-rule="nonzero"/></g></g><g clip-path="url(#bdd6a68e49)"><path fill="#737373" d="M 20.75 24.304688 L 20.75 22.96875 L 21.507812 23.113281 C 22.347656 23.289062 23.132812 22.679688 23.191406 21.835938 L 23.363281 19.949219 L 24.207031 19.601562 C 24.496094 19.484375 24.613281 19.136719 24.4375 18.847656 L 23.363281 17.046875 C 23.191406 14.839844 21.941406 12.691406 18.71875 12.691406 C 15.410156 12.691406 13.78125 15.128906 13.78125 17.628906 C 13.78125 18.703125 14.160156 19.628906 14.742188 20.414062 C 15.261719 21.140625 15.523438 22.011719 15.523438 22.882812 L 15.523438 24.304688 Z M 20.75 24.304688 " fill-opacity="1" fill-rule="nonzero"/></g><g clip-path="url(#9fdc9a1b0f)"><path fill="#cff9ff" d="M 13.78125 17.628906 C 13.78125 18.269531 13.921875 18.859375 14.152344 19.398438 C 14.578125 19.566406 15.039062 19.660156 15.523438 19.660156 C 17.609375 19.660156 19.300781 17.96875 19.300781 15.886719 C 19.300781 14.597656 18.65625 13.464844 17.671875 12.785156 C 15.066406 13.242188 13.78125 15.410156 13.78125 17.628906 Z M 13.78125 17.628906 " fill-opacity="1" fill-rule="nonzero"/></g><g clip-path="url(#b84d4b5abd)"><path fill="#737373" d="M 17.90625 16.203125 C 17.933594 16.089844 17.933594 15.972656 17.933594 15.886719 C 17.933594 15.796875 17.933594 15.652344 17.90625 15.566406 L 18.574219 15.070312 C 18.632812 15.015625 18.660156 14.925781 18.632812 14.867188 L 17.964844 13.738281 C 17.933594 13.679688 17.847656 13.648438 17.761719 13.679688 L 17.003906 14.027344 C 16.832031 13.882812 16.628906 13.765625 16.425781 13.679688 L 16.335938 12.835938 C 16.335938 12.75 16.25 12.691406 16.191406 12.691406 L 14.855469 12.691406 C 14.800781 12.691406 14.710938 12.75 14.710938 12.835938 L 14.625 13.679688 C 14.421875 13.738281 14.21875 13.851562 14.042969 13.996094 L 13.289062 13.648438 C 13.203125 13.621094 13.113281 13.648438 13.085938 13.707031 L 12.417969 14.867188 C 12.390625 14.925781 12.417969 15.015625 12.476562 15.070312 L 13.144531 15.566406 C 13.113281 15.683594 13.113281 15.796875 13.113281 15.886719 C 13.113281 15.972656 13.113281 16.117188 13.144531 16.203125 L 12.476562 16.699219 C 12.417969 16.757812 12.390625 16.84375 12.417969 16.902344 L 13.085938 18.035156 C 13.113281 18.089844 13.203125 18.121094 13.289062 18.089844 L 14.042969 17.742188 C 14.21875 17.886719 14.421875 18.003906 14.625 18.089844 L 14.710938 18.933594 C 14.710938 19.019531 14.800781 19.078125 14.855469 19.078125 L 16.164062 19.078125 C 16.25 19.078125 16.308594 19.019531 16.308594 18.933594 L 16.394531 18.089844 C 16.597656 18.003906 16.800781 17.886719 16.976562 17.742188 L 17.730469 18.089844 C 17.820312 18.121094 17.90625 18.089844 17.933594 18.035156 L 18.601562 16.902344 C 18.632812 16.84375 18.632812 16.726562 18.542969 16.699219 Z M 15.523438 17.394531 C 14.683594 17.394531 14.015625 16.726562 14.015625 15.886719 C 14.015625 15.042969 14.683594 14.375 15.523438 14.375 C 16.367188 14.375 17.035156 15.042969 17.035156 15.886719 C 17.035156 16.726562 16.367188 17.394531 15.523438 17.394531 " fill-opacity="1" fill-rule="nonzero"/></g><path fill="#737373" d="M 15.523438 14.144531 C 14.566406 14.144531 13.78125 14.925781 13.78125 15.886719 C 13.78125 16.84375 14.566406 17.628906 15.523438 17.628906 C 16.484375 17.628906 17.265625 16.84375 17.265625 15.886719 C 17.265625 14.925781 16.484375 14.144531 15.523438 14.144531 M 15.523438 16.757812 C 15.03125 16.757812 14.652344 16.378906 14.652344 15.886719 C 14.652344 15.390625 15.03125 15.015625 15.523438 15.015625 C 16.019531 15.015625 16.394531 15.390625 16.394531 15.886719 C 16.394531 16.378906 16.019531 16.757812 15.523438 16.757812 " fill-opacity="1" fill-rule="nonzero"/></svg>